
<svg width="100" height="100" viewBox="0 0 100 100" fill="none" xmlns="http://www.w3.org/2000/svg">
    <!-- Indigo Gradient for the main folder -->
    <defs>
        <linearGradient id="folderGradient" x1="50" y1="20" x2="50" y2="80" gradientUnits="userSpaceOnUse">
            <stop stop-color="#4f46e5"/>
            <stop offset="1" stop-color="#3730a3"/>
        </linearGradient>
    </defs>
    
    <!-- Dock base -->
    <path d="M10 80 H 90 C 95 80, 95 85, 90 85 H 10 C 5 85, 5 80, 10 80 Z" fill="#e0e7ff" />
    <path d="M15 85 H 85 C 90 85, 90 90, 85 90 H 15 C 10 90, 10 85, 15 85 Z" fill="#c7d2fe" />

    <!-- Back part of the folder -->
    <path d="M10 30 C10 24.4772 14.4772 20 20 20 H 80 C85.5228 20 90 24.4772 90 30 V 75 C90 77.7614 87.7614 80 85 80 H 15 C12.2386 80 10 77.7614 10 75 V 30 Z" fill="url(#folderGradient)"/>
    
    <!-- Front part of the folder -->
    <path d="M5 45 C5 39.4772 9.47715 35 15 35 H 40 L 48 45 H 85 C90.5228 45 95 49.4772 95 55 V 70 C95 72.7614 92.7614 75 90 75 H 10 C7.23858 75 5 72.7614 5 70 V 45 Z" fill="#a5b4fc"/>
</svg>
